<svg width="24" height="24" viewBox="0 0 24 24" fill="none" xmlns="http://www.w3.org/2000/svg">
<path fill-rule="evenodd" clip-rule="evenodd" d="M5.03 13.7012L5.74 8.01122C5.7911 7.60188 5.92606 7.20747 6.13647 6.85265C6.34688 6.49782 6.62821 6.1902 6.96287 5.94901C7.29753 5.70782 7.67834 5.53824 8.0815 5.45087C8.48466 5.3635 8.90151 5.36022 9.306 5.44122C10.163 5.61322 11.124 5.96122 12 5.96122C12.876 5.96122 13.837 5.61322 14.694 5.44122C15.0984 5.36037 15.5152 5.36377 15.9182 5.45122C16.3212 5.53866 16.7019 5.70826 17.0365 5.94944C17.371 6.19062 17.6523 6.49818 17.8626 6.85293C18.0729 7.20768 18.2079 7.60198 18.259 8.01122L18.971 13.7012C20.107 13.9852 22 14.5352 22 16.0002C22 17.5962 19.787 18.1222 18.58 18.3902C16.862 18.7722 14.536 19.0002 12 19.0002C9.464 19.0002 7.138 18.7722 5.42 18.3902C4.212 18.1222 2 17.5962 2 16.0002C2 14.5352 3.893 13.9852 5.03 13.7012ZM7.725 8.26022C7.74199 8.12371 7.78695 7.99217 7.85709 7.87383C7.92723 7.75549 8.02103 7.65289 8.13263 7.57246C8.24423 7.49202 8.37122 7.43548 8.50567 7.40636C8.64011 7.37724 8.77912 7.37617 8.914 7.40322C9.913 7.60322 10.974 7.96122 12 7.96122C13.026 7.96122 14.087 7.60322 15.086 7.40322C15.2209 7.37617 15.3599 7.37724 15.4943 7.40636C15.6288 7.43548 15.7558 7.49202 15.8674 7.57246C15.979 7.65289 16.0728 7.75549 16.1429 7.87383C16.213 7.99217 16.258 8.12371 16.275 8.26022L16.906 13.3142C15.467 13.1132 13.786 13.0002 12 13.0002C10.214 13.0002 8.533 13.1132 7.094 13.3132L7.725 8.26022ZM5.853 16.4392C4.3 16.0942 4.3 15.9082 5.853 15.5632C7.391 15.2202 9.565 15.0002 12 15.0002C14.435 15.0002 16.609 15.2202 18.147 15.5622C19.7 15.9072 19.7 16.0922 18.147 16.4382C16.609 16.7802 14.435 17.0002 12 17.0002C9.565 17.0002 7.391 16.7812 5.853 16.4392Z" fill="black"/>
</svg>
