<svg width="24" height="24" viewBox="0 0 24 24" fill="none" xmlns="http://www.w3.org/2000/svg">
<path d="M17.64 12C17.54 12.745 17.58 13.5 17.659 15.011L18 19.522C18 20.229 17.88 20.607 17.245 20.948C14.632 22.351 9.368 22.351 6.755 20.948C6.12 20.607 6 20.228 6 19.522L6.341 15.012C6.421 13.501 6.46 12.745 6.359 12" stroke="black" stroke-width="1.5" stroke-linecap="round" stroke-linejoin="round"/>
<path d="M14 16.9998C14 17.8748 14.419 18.4188 15 18.9998M9.99997 16.9998C9.99997 17.8748 9.58097 18.4188 8.99997 18.9998M7.39997 6.89676L11.282 8.74676C11.636 8.91576 11.813 8.99976 12 8.99976C12.187 8.99976 12.364 8.91576 12.718 8.74676L16.6 6.89676C17.46 6.48776 17.89 6.28276 17.982 5.75876C18.075 5.23376 17.802 4.92576 17.258 4.30876C14.536 1.22976 9.46397 1.22976 6.74197 4.30876C6.19697 4.92576 5.92497 5.23376 6.01797 5.75876C6.11097 6.28376 6.54097 6.48776 7.39997 6.89676Z" stroke="black" stroke-width="1.5" stroke-linecap="round" stroke-linejoin="round"/>
<path d="M13.9997 6L11.9997 9L9.99971 6M6.38371 6.5C5.03371 6.767 3.82671 8.02 2.98871 9.142C2.45171 9.86 2.18371 10.22 2.05071 10.883C1.91771 11.547 2.05771 12.101 2.33771 13.208L3.63771 18.338C3.86771 19.246 4.99971 19.111 5.99971 18.102M17.6157 6.5C18.9657 6.767 20.1727 8.02 21.0107 9.142C21.5477 9.86 21.8157 10.22 21.9487 10.883C22.0817 11.547 21.9417 12.101 21.6617 13.208L20.3617 18.338C20.1317 19.246 18.9997 19.103 17.9997 18.606" stroke="black" stroke-width="1.5" stroke-linecap="round" stroke-linejoin="round"/>
</svg>
