<svg width="234" height="64" viewBox="0 0 234 64" fill="none" xmlns="http://www.w3.org/2000/svg">
<g clip-path="url(#clip0_77_48333)">
<path d="M28.9858 51.7687C26.0426 55.2887 21.8838 57.1447 17.341 57.1447C9.08716 57.1447 3.84056 51.7047 1.40922 44.0887C-0.574248 37.8807 -0.3823 30.8407 1.4732 24.6327C2.30498 21.9447 3.52066 19.3207 5.2482 17.0807C8.1914 13.3687 12.7342 10.5527 17.5329 10.5527C24.2512 10.5527 28.538 15.8647 29.6256 22.1367C29.7536 22.8407 29.8816 23.6727 29.8176 24.4407C29.6256 26.1687 25.5308 26.8727 24.0592 26.8727C22.9714 26.8727 20.604 26.6167 20.604 25.2727C20.4762 23.2887 19.9003 20.8567 17.4049 20.8567C15.4855 20.8567 13.7579 22.3287 12.8622 23.9287C10.8787 27.2567 10.1749 31.2887 10.3028 35.1287C10.4308 38.3287 11.1346 41.7207 12.8622 44.4087C14.0778 46.1367 15.1016 46.7767 17.213 46.7767C17.9168 46.7767 18.6846 46.6487 19.3244 46.4567C21.3078 45.8167 22.9714 44.6007 24.763 43.5767C25.0828 43.3847 25.5308 43.1927 25.9146 43.2567C26.8104 43.4487 27.5142 44.3447 28.026 45.1127C29.1138 46.8407 30.2654 50.1687 28.9858 51.7687Z" fill="#151523"/>
<path d="M54.0258 56.5051C49.355 56.6331 44.6842 56.6331 40.0134 56.6331C39.3096 56.6331 38.5418 56.6331 37.838 56.4411C36.4944 56.1211 34.8948 55.1611 35.0228 53.8171C35.3428 50.4251 35.4068 47.0331 35.4708 43.6411C35.5986 33.4651 35.1508 23.2891 35.5986 13.1772C35.5986 11.4492 38.9898 10.9372 40.2054 10.8092C41.741 10.7452 43.4046 10.8092 44.7482 11.5132C45.26 11.7692 45.836 12.3452 45.836 12.9852C45.388 23.9931 46.1558 35.0011 45.836 45.9451H58.7604C59.7842 45.9451 60.552 47.3531 60.808 48.2491C61.3838 49.9771 61.5118 51.8971 61.1918 53.6251C60.9998 54.5851 60.616 55.8011 59.7202 56.1211C58.8244 56.3771 54.9214 56.5051 54.0258 56.5051Z" fill="#151523"/>
<path d="M164.328 51.2569C163.048 53.6889 161.257 56.4409 158.185 56.4409C156.394 56.4409 154.538 55.4809 153.515 53.7529C150.571 48.8249 148.396 43.3209 146.476 37.8809C143.789 29.9449 141.678 21.8169 139.31 13.753C138.991 12.793 140.142 12.025 141.102 11.641C142.638 10.937 144.301 10.681 145.965 10.681C147.116 10.617 149.036 10.873 149.356 12.025C152.171 21.4969 154.218 31.2889 158.121 40.3769C161.704 31.6729 163.944 22.0729 165.543 12.857C165.799 11.129 168.359 10.745 170.15 10.745C171.878 10.809 173.925 11.129 175.141 12.345C175.781 12.985 175.845 14.009 175.781 14.905C175.717 17.081 175.269 19.257 174.757 21.3689C172.773 30.2649 168.743 43.3849 164.328 51.2569Z" fill="#151523"/>
<path d="M189.897 55.0971C188.873 56.3131 186.634 56.6971 185.162 56.6971C184.394 56.6971 183.69 56.5691 182.987 56.4411C181.643 56.1211 180.043 55.1611 180.171 53.8171C180.491 50.4251 180.555 47.0331 180.619 43.6411C180.747 33.4651 180.299 23.2891 180.747 13.1772C180.747 11.4492 184.138 10.9372 185.354 10.8092C186.889 10.7452 188.553 10.8092 189.897 11.5132C190.409 11.7692 190.984 12.3452 190.984 12.9852C190.6 22.0731 191.112 31.1611 191.048 40.2491C191.048 44.7291 190.984 49.2731 190.409 53.7531C190.345 54.2651 190.217 54.7771 189.897 55.0971Z" fill="#151523"/>
<path d="M232.21 43.833C229.394 51.385 223.764 56.697 215.382 56.697C207.128 56.697 200.538 51.577 197.914 43.769C196.059 38.265 196.187 31.993 197.85 26.425C200.346 17.5931 207.512 10.7451 217.046 10.7451C218.518 10.7451 220.052 11.4491 221.012 12.5371C221.14 12.6651 221.332 13.1771 221.524 13.1771C228.818 15.4811 232.978 22.777 233.81 30.073C234.32 34.617 233.81 39.481 232.21 43.833ZM206.808 36.345C207 41.529 209.816 46.521 215.638 46.521C219.348 46.521 221.524 43.257 222.676 40.057C224.148 35.961 224.212 31.097 222.548 27.129C221.78 25.209 220.052 23.353 218.07 22.841C217.43 22.649 216.79 22.521 216.214 22.201C215.766 21.945 215.318 21.561 214.934 21.177C209.112 22.393 206.488 30.393 206.808 36.345Z" fill="#151523"/>
<path d="M108.428 0.0257452L108.757 0.000856797L109.146 0.0150786L109.537 0.0755222L109.929 0.182188L130.723 7.2932C131.348 7.507 131.901 7.89916 132.317 8.42374C132.732 8.9483 132.993 9.58352 133.07 10.2549L133.094 10.6674V28.445C133.094 29.3158 132.782 30.1564 132.218 30.8072C131.654 31.4578 130.877 31.8736 130.034 31.9756L129.628 32.0004H122.697V56.889C122.697 58.683 122.037 60.411 120.848 61.7264C119.659 63.0418 118.029 63.8476 116.285 63.9822L115.765 64H81.1079C79.3591 64.0006 77.6749 63.323 76.3927 62.1032C75.1103 60.8832 74.3249 59.2112 74.1937 57.4224L74.1765 56.889V32.0004H67.2449C66.3961 32.0004 65.5767 31.6806 64.9425 31.102C64.3081 30.5232 63.9027 29.7258 63.8035 28.861L63.7793 28.445V10.6674C63.7789 9.9913 63.9667 9.32914 64.3203 8.7586C64.6739 8.18806 65.1787 7.73276 65.7755 7.4461L66.1497 7.2932L86.9443 0.182188C87.4653 0.00416091 88.0201 -0.0443022 88.5629 0.0407936C89.1057 0.12589 89.6211 0.342108 90.0665 0.67163C90.5119 1.00115 90.8747 1.43455 91.1247 1.93609C91.3749 2.43764 91.5053 2.99298 91.5051 3.55636C91.4971 5.40162 92.1885 7.17782 93.4333 8.50972C94.6783 9.84164 96.3791 10.625 98.1765 10.6942C99.9739 10.7634 101.727 10.1132 103.066 8.88076C104.404 7.64838 105.224 5.93036 105.351 4.0897L105.382 3.23636L105.441 2.8346L105.569 2.35816L105.721 1.99194L105.895 1.66483L106.13 1.33417L106.37 1.04973C106.561 0.860104 106.764 0.69418 106.976 0.55196L107.309 0.363518L107.666 0.207076L108.04 0.0933002L108.428 0.0257452Z" fill="#151523"/>
<path d="M117.097 35.5552C117.097 45.3736 109.14 53.333 99.3238 53.333C89.508 53.333 81.5508 45.3736 81.5508 35.5552C81.5508 25.7368 89.508 17.7773 99.3238 17.7773C109.14 17.7773 117.097 25.7368 117.097 35.5552Z" fill="white"/>
</g>
<defs>
<clipPath id="clip0_77_48333">
<rect width="234" height="64" fill="white"/>
</clipPath>
</defs>
</svg>
