<svg width="117" height="32" viewBox="0 0 117 32" fill="none" xmlns="http://www.w3.org/2000/svg">
<path d="M14.4929 25.8844C13.0213 27.6444 10.9419 28.5724 8.67048 28.5724C4.54358 28.5724 1.92028 25.8524 0.70461 22.0444C-0.287124 18.9404 -0.19115 15.4204 0.736602 12.3164C1.15249 10.9724 1.76033 9.66044 2.6241 8.54044C4.0957 6.68444 6.3671 5.27644 8.76645 5.27644C12.1256 5.27644 14.269 7.93244 14.8128 11.0684C14.8768 11.4204 14.9408 11.8364 14.9088 12.2204C14.8128 13.0844 12.7654 13.4364 12.0296 13.4364C11.4857 13.4364 10.302 13.3084 10.302 12.6364C10.2381 11.6444 9.95014 10.4284 8.70247 10.4284C7.74273 10.4284 6.87896 11.1644 6.43108 11.9644C5.43934 13.6284 5.08744 15.6444 5.15142 17.5644C5.2154 19.1644 5.56731 20.8604 6.43108 22.2044C7.03892 23.0684 7.55078 23.3884 8.6065 23.3884C8.9584 23.3884 9.3423 23.3244 9.66221 23.2284C10.6539 22.9084 11.4857 22.3004 12.3815 21.7884C12.5414 21.6924 12.7654 21.5964 12.9573 21.6284C13.4052 21.7244 13.7571 22.1724 14.013 22.5564C14.5569 23.4204 15.1327 25.0844 14.4929 25.8844Z" fill="#FFF8E8"/>
<path d="M27.0126 28.2524C24.6772 28.3164 22.3418 28.3164 20.0064 28.3164C19.6545 28.3164 19.2706 28.3164 18.9187 28.2204C18.2469 28.0604 17.4471 27.5804 17.5111 26.9084C17.6711 25.2124 17.7031 23.5164 17.7351 21.8204C17.799 16.7324 17.5751 11.6444 17.799 6.58844C17.799 5.72444 19.4946 5.46844 20.1024 5.40444C20.8702 5.37244 21.702 5.40444 22.3738 5.75644C22.6297 5.88444 22.9177 6.17244 22.9177 6.49244C22.6937 11.9964 23.0776 17.5004 22.9177 22.9724H29.3799C29.8918 22.9724 30.2757 23.6764 30.4037 24.1244C30.6916 24.9884 30.7556 25.9484 30.5956 26.8124C30.4996 27.2924 30.3077 27.9004 29.8598 28.0604C29.4119 28.1884 27.4604 28.2524 27.0126 28.2524Z" fill="#FFF8E8"/>
<path d="M82.1641 25.6284C81.5242 26.8444 80.6285 28.2204 79.0929 28.2204C78.1971 28.2204 77.2694 27.7404 76.7575 26.8764C75.2859 24.4124 74.1982 21.6604 73.2384 18.9404C71.8948 14.9724 70.8391 10.9084 69.6554 6.87644C69.4955 6.39644 70.0713 6.01244 70.5512 5.82044C71.319 5.46844 72.1507 5.34044 72.9825 5.34044C73.5584 5.30844 74.5181 5.43644 74.6781 6.01244C76.0857 10.7484 77.1094 15.6444 79.0609 20.1884C80.8524 15.8364 81.9721 11.0364 82.7719 6.42844C82.8999 5.56444 84.1795 5.37244 85.0753 5.37244C85.939 5.40444 86.9628 5.56444 87.5706 6.17244C87.8905 6.49244 87.9225 7.00444 87.8905 7.45244C87.8585 8.54044 87.6346 9.62844 87.3787 10.6844C86.3869 15.1324 84.3715 21.6924 82.1641 25.6284Z" fill="#FFF8E8"/>
<path d="M94.9481 27.5484C94.4363 28.1564 93.3166 28.3484 92.5808 28.3484C92.1969 28.3484 91.845 28.2844 91.4931 28.2204C90.8212 28.0604 90.0215 27.5804 90.0854 26.9084C90.2454 25.2124 90.2774 23.5164 90.3094 21.8204C90.3734 16.7324 90.1494 11.6444 90.3734 6.58844C90.3734 5.72444 92.0689 5.46844 92.6768 5.40444C93.4445 5.37244 94.2763 5.40444 94.9481 5.75644C95.2041 5.88444 95.492 6.17244 95.492 6.49244C95.3 11.0364 95.556 15.5804 95.524 20.1244C95.524 22.3644 95.492 24.6364 95.2041 26.8764C95.1721 27.1324 95.1081 27.3884 94.9481 27.5484Z" fill="#FFF8E8"/>
<path d="M116.105 21.9164C114.697 25.6924 111.882 28.3484 107.691 28.3484C103.564 28.3484 100.269 25.7884 98.9573 21.8844C98.0296 19.1324 98.0935 15.9964 98.9253 13.2124C100.173 8.79644 103.756 5.37244 108.523 5.37244C109.259 5.37244 110.026 5.72444 110.506 6.26844C110.57 6.33244 110.666 6.58844 110.762 6.58844C114.409 7.74044 116.489 11.3884 116.905 15.0364C117.16 17.3084 116.905 19.7404 116.105 21.9164ZM103.404 18.1724C103.5 20.7644 104.908 23.2604 107.819 23.2604C109.674 23.2604 110.762 21.6284 111.338 20.0284C112.074 17.9804 112.106 15.5484 111.274 13.5644C110.89 12.6044 110.026 11.6764 109.035 11.4204C108.715 11.3244 108.395 11.2604 108.107 11.1004C107.883 10.9724 107.659 10.7804 107.467 10.5884C104.556 11.1964 103.244 15.1964 103.404 18.1724Z" fill="#FFF8E8"/>
<path d="M54.2137 0.0128726L54.3783 0.000428415L54.5724 0.00753934L54.7682 0.0377611L54.964 0.0910941L65.3613 3.6466C65.6738 3.7535 65.9501 3.94958 66.1579 4.21187C66.3657 4.47415 66.4963 4.79176 66.5344 5.12747L66.5465 5.33369V14.2225C66.5465 14.6579 66.3907 15.0782 66.1086 15.4036C65.8266 15.7289 65.4379 15.9368 65.0164 15.9878L64.8137 16.0002H61.3479V28.4445C61.3482 29.3415 61.018 30.2055 60.4235 30.8632C59.8289 31.5209 59.014 31.9238 58.1421 31.9911L57.8822 32H40.5535C39.6791 32.0003 38.837 31.6615 38.1959 31.0516C37.5547 30.4416 37.162 29.6056 37.0964 28.7112L37.0878 28.4445V16.0002H33.622C33.1976 16.0002 32.7879 15.8403 32.4708 15.551C32.1536 15.2616 31.9509 14.8629 31.9013 14.4305L31.8892 14.2225V5.33369C31.889 4.99565 31.9829 4.66457 32.1597 4.3793C32.3365 4.09403 32.5889 3.86638 32.8873 3.72305L33.0744 3.6466L43.4717 0.0910941C43.7322 0.00208047 44.0096 -0.0221511 44.281 0.0203968C44.5524 0.0629448 44.8101 0.171054 45.0328 0.335815C45.2555 0.500576 45.4369 0.717273 45.5619 0.968047C45.687 1.21882 45.7522 1.49649 45.7521 1.77818C45.7481 2.70081 46.0938 3.58891 46.7162 4.25486C47.3387 4.92082 48.1891 5.31248 49.0878 5.3471C49.9865 5.38172 50.8631 5.05658 51.5325 4.44038C52.2018 3.82419 52.6115 2.96518 52.6749 2.04485L52.6905 1.61818L52.72 1.4173L52.7841 1.17908L52.8603 0.995971L52.947 0.832417L53.0648 0.667086L53.1844 0.524866C53.2803 0.430052 53.3814 0.34709 53.4876 0.27598L53.654 0.181759L53.8325 0.103538L54.0196 0.0466501L54.2137 0.0128726Z" fill="#FFF8E8"/>
<path d="M58.5487 17.7778C58.5487 22.687 54.5701 26.6667 49.6622 26.6667C44.7543 26.6667 40.7757 22.687 40.7757 17.7778C40.7757 12.8686 44.7543 8.88889 49.6622 8.88889C54.5701 8.88889 58.5487 12.8686 58.5487 17.7778Z" fill="#151523"/>
</svg>
