<svg width="24" height="24" viewBox="0 0 24 24" fill="none" xmlns="http://www.w3.org/2000/svg">
<path d="M18.5 3H5.5V8L2 16.5L9.5 21L12 18L14.5 21L22 16.5L18.5 8V3Z" stroke="black" stroke-width="2" stroke-linecap="round" stroke-linejoin="round"/>
<path d="M5.5 7C5.23478 7 4.98043 7.10536 4.79289 7.29289C4.60536 7.48043 4.5 7.73478 4.5 8C4.5 8.26522 4.60536 8.51957 4.79289 8.70711C4.98043 8.89464 5.23478 9 5.5 9V7ZM18.5 9C18.7652 9 19.0196 8.89464 19.2071 8.70711C19.3946 8.51957 19.5 8.26522 19.5 8C19.5 7.73478 19.3946 7.48043 19.2071 7.29289C19.0196 7.10536 18.7652 7 18.5 7V9ZM5.5 9H18.5V7H5.5V9Z" fill="black"/>
<path d="M18.5 7V8L19.375 10.125M5.5 7V8L4.625 10.125" stroke="black" stroke-width="2" stroke-linecap="round" stroke-linejoin="round"/>
</svg>
